<?xml version="1.0" encoding="UTF-8" standalone="no"?>
<svg width="1309px" height="588px" viewBox="0 0 1309 588" version="1.1" xmlns="http://www.w3.org/2000/svg" xmlns:xlink="http://www.w3.org/1999/xlink" xmlns:sketch="http://www.bohemiancoding.com/sketch/ns">
    <title>papermill-stack-1</title>
    <description>Created with Sketch (http://www.bohemiancoding.com/sketch)</description>
    <defs x2="41.4968782%" id="linearGradient-1" x1="69.4037518%" y2="51.4878511%" y1="51.4878511%">
        <linearGradient>
            <stop stop-color="#FFFFFF" offset="0%"></stop>
            <stop stop-color="#DFF0FF" offset="100%"></stop>
        </linearGradient>
    </defs>
    <g id="Page 1" stroke="none" stroke-width="1" fill="none" fill-rule="evenodd">
        <path d="M179,20 L179,501 L722,501 L722,20 L179,20 Z M179,20" id="Rectangle 64" stroke="#979797" stroke-width="3" fill="url(#linearGradient-1)"></path>
        <path d="M958,20 L958,501 L1125,501 L1125,20 L958,20 Z M958,20" id="Rectangle 64 copy" stroke="#979797" stroke-width="3" fill-opacity="0.194824219" fill="#D4D4D4"></path>
        <path d="M740,20 L740,501 L940,501 L940,20 L740,20 Z M740,20" id="Rectangle 64 copy 2" stroke="#979797" stroke-width="3" fill-opacity="0.194824219" fill="#D4D4D4"></path>
        <text id="Output Format" fill="#000000" font-family="Source Sans Pro" font-size="18" font-weight="normal" sketch:alignment="right" line-spacing="22">
            <tspan x="45.35" y="76.2382065">Output Format</tspan>
            <tspan x="161" y="98.3742065"></tspan>
            <tspan x="161" y="120.374207"></tspan>
            <tspan x="72.764" y="142.238207">Conversion</tspan>
            <tspan x="161" y="164.374207"></tspan>
            <tspan x="161" y="186.374207"></tspan>
            <tspan x="72.008" y="208.238207">Templating</tspan>
            <tspan x="161" y="230.374207"></tspan>
            <tspan x="161" y="252.374207"></tspan>
            <tspan x="18.746" y="274.238207">Formatting Syntax</tspan>
            <tspan x="161" y="296.374207"></tspan>
            <tspan x="161" y="318.374207"></tspan>
            <tspan x="41.966" y="340.238207">Version Control</tspan>
            <tspan x="161" y="362.374207"></tspan>
            <tspan x="161" y="384.374207"></tspan>
            <tspan x="48.968" y="406.238207">Build/Compile</tspan>
            <tspan x="161" y="428.374207"></tspan>
            <tspan x="161" y="450.374207"></tspan>
            <tspan x="23.282" y="472.238207">Operating System</tspan>
        </text>
        <text id="Output Format" fill="#000000" font-family="Source Sans Pro" font-size="18" font-weight="normal" line-spacing="22">
            <tspan x="1139.544" y="71.8645048">Output Format</tspan>
            <tspan x="1143" y="94.0005048"></tspan>
            <tspan x="1143" y="116.000505"></tspan>
            <tspan x="1139.544" y="137.864505">Conversion</tspan>
            <tspan x="1143" y="160.000505"></tspan>
            <tspan x="1143" y="182.000505"></tspan>
            <tspan x="1139.544" y="203.864505">Templating</tspan>
            <tspan x="1143" y="226.000505"></tspan>
            <tspan x="1143" y="248.000505"></tspan>
            <tspan x="1139.544" y="269.864505">Formatting Syntax</tspan>
            <tspan x="1143" y="292.000505"></tspan>
            <tspan x="1143" y="314.000505"></tspan>
            <tspan x="1139.544" y="335.864505">Version Control</tspan>
            <tspan x="1143" y="358.000505"></tspan>
            <tspan x="1143" y="380.000505"></tspan>
            <tspan x="1139.544" y="401.864505">Build/Compile</tspan>
            <tspan x="1143" y="424.000505"></tspan>
            <tspan x="1143" y="446.000505"></tspan>
            <tspan x="1139.544" y="467.864505">Operating System</tspan>
        </text>
        <g id="Group copy" transform="translate(278.000000, 39.000000)">
            <path d="M0,0 L0,40 L70,40 L70,0 L0,0 Z M0,0" id="Rectangle 1 copy 3" stroke="#4A4A4A" fill="#85C2F8"></path>
            <text id="HTML" fill="#000000" font-family="Source Sans Pro" font-size="18" font-weight="bold" sketch:alignment="middle" x="12.5" y="32.6260459">
                <tspan>HTML</tspan>
            </text>
        </g>
        <g id="Group copy" transform="translate(365.000000, 39.000000)">
            <path d="M0,0 L0,40 L70,40 L70,0 L0,0 Z M0,0" id="Rectangle 1 copy 3" stroke="#4A4A4A" fill="#85C2F8"></path>
            <text id="PDF" fill="#000000" font-family="Source Sans Pro" font-size="18" font-weight="bold" sketch:alignment="middle" x="19.5" y="32.6260459">
                <tspan>PDF</tspan>
            </text>
        </g>
        <g id="Group copy" transform="translate(191.500000, 39.000000)">
            <path d="M0,0 L0,40 L70,40 L70,0 L0,0 Z M0,0" id="Rectangle 1 copy 4" stroke="#4A4A4A" fill="#85C2F8"></path>
            <text id="ePub" fill="#000000" font-family="Source Sans Pro" font-size="18" font-weight="normal" sketch:alignment="middle" x="15.5" y="32.6260459">
                <tspan>ePub</tspan>
            </text>
        </g>
        <g id="Group copy 2" transform="translate(191.000000, 171.000000)">
            <path d="M1,0 L1,40 L156,40 L156,0 L1,0 Z M1,0" id="Rectangle 1 copy 3" stroke="#4A4A4A" fill="#85C2F8"></path>
            <text id="HTML" fill="#000000" font-family="Source Sans Pro" font-size="18" font-weight="bold" sketch:alignment="middle" x="54.91" y="35.6260459">
                <tspan>HTML</tspan>
            </text>
        </g>
        <g id="Group copy 3" transform="translate(192.000000, 105.000000)">
            <path d="M1,0 L1,40 L351,40 L351,0 L1,0 Z M1,0" id="Rectangle 1 copy 3" stroke="#4A4A4A" fill="#85C2F8"></path>
            <text id="pandoc" fill="#000000" font-family="Source Sans Pro" font-size="18" font-weight="bold" sketch:alignment="middle" x="145.633" y="33.6260459">
                <tspan>pandoc</tspan>
            </text>
        </g>
        <g id="Group copy 2" transform="translate(367.000000, 171.000000)">
            <path d="M0,0 L0,40 L68,40 L68,0 L0,0 Z M0,0" id="Rectangle 1 copy 5" stroke="#4A4A4A" fill="#85C2F8"></path>
            <text id="LaTeX" fill="#000000" font-family="Source Sans Pro" font-size="18" font-weight="bold" sketch:alignment="middle" x="10.699" y="35.6260459">
                <tspan>LaTeX</tspan>
            </text>
        </g>
        <path d="M191,368 L191,408 L261,408 L261,368 L191,368 Z M191,368" id="Rectangle 1 copy 5" stroke="#4A4A4A" fill="#85C2F8"></path>
        <text id="mill copy" fill="#000000" font-family="Source Sans Pro" font-size="18" font-weight="bold" sketch:alignment="middle" x="211" y="400.626046">
            <tspan>mill</tspan>
        </text>
        <g id="Group" transform="translate(364.000000, 368.000000)">
            <path d="M0,0 L0,40 L70,40 L70,0 L0,0 Z M0,0" id="Rectangle 1 copy 5" stroke="#979797" fill="#C5DAEC"></path>
            <text id="make copy" fill="#000000" font-family="Source Sans Pro" font-size="18" font-weight="normal" sketch:alignment="middle" x="15.5" y="32.6260459">
                <tspan>make</tspan>
            </text>
        </g>
        <g id="Group copy" transform="translate(761.000000, 368.000000)">
            <path d="M0,0 L0,40 L155,40 L155,0 L0,0 Z M0,0" id="Rectangle 1 copy 5" stroke="#979797" fill="#D4D4D4"></path>
            <text id="make copy" fill="#000000" font-family="Source Sans Pro" font-size="18" font-weight="normal" sketch:alignment="middle" x="58.424" y="35.6260459">
                <tspan>make</tspan>
            </text>
        </g>
        <path d="M277,368 L277,408 L347,408 L347,368 L277,368 Z M277,368" id="Rectangle 1 copy 6" stroke="#979797" fill="#C5DAEC"></path>
        <text id="grunt copy" fill="#000000" font-family="Source Sans Pro" font-size="18" font-weight="normal" sketch:alignment="middle" x="291.5" y="400.626046">
            <tspan>grunt</tspan>
        </text>
        <path d="M433,535 L433,575 L551,575 L551,535 L433,535 Z M433,535" id="Rectangle 1 copy 7" stroke="#979797" fill="#C5DAEC"></path>
        <text id="documented" fill="#000000" font-family="Source Sans Pro" font-size="18" font-style="italic" font-weight="normal" sketch:alignment="middle" x="446" y="567.626046">
            <tspan>documented</tspan>
        </text>
        <path d="M583,535 L583,575 L703,575 L703,535 L583,535 Z M583,535" id="Rectangle 1 copy 8" stroke="#979797" fill="#D4D4D4"></path>
        <text id="do-it-yourself" fill="#000000" font-family="Source Sans Pro" font-size="18" font-style="italic" font-weight="normal" sketch:alignment="middle" x="592.5" y="567.626046">
            <tspan>do-it-yourself</tspan>
        </text>
        <path d="M191,433 L191,473 L261,473 L261,433 L191,433 Z M191,433" id="Rectangle 1 copy 6" stroke="#4A4A4A" fill="#85C2F8"></path>
        <text id="Linux copy" fill="#000000" font-family="Source Sans Pro" font-size="18" font-weight="normal" sketch:alignment="middle" x="205" y="465.626046">
            <tspan>Linux</tspan>
        </text>
        <path d="M306,535 L306,575 L416,575 L416,535 L306,535 Z M306,535" id="Rectangle 1 copy 7" stroke="#4A4A4A" fill="#85C2F8"></path>
        <text id="integrated" fill="#000000" font-family="Source Sans Pro" font-size="18" font-weight="normal" sketch:alignment="middle" x="322.584" y="567.626046">
            <tspan>integrated</tspan>
        </text>
        <path d="M349,433 L349,473 L419,473 L419,433 L349,433 Z M349,433" id="Rectangle 1 copy 6" stroke="#4A4A4A" fill="#85C2F8"></path>
        <text id="Mac copy" fill="#000000" font-family="Source Sans Pro" font-size="18" font-weight="normal" sketch:alignment="middle" x="367" y="465.626046">
            <tspan>Mac</tspan>
        </text>
        <path d="M260,433 L260,473 L350,473 L350,433 L260,433 Z M260,433" id="Rectangle 1 copy 7" stroke="#4A4A4A" fill="#85C2F8"></path>
        <text id="UNIX" fill="#000000" font-family="Source Sans Pro" font-size="18" font-weight="bold" sketch:alignment="middle" x="284.218" y="466.626046">
            <tspan>UNIX</tspan>
        </text>
        <g id="Group copy" transform="translate(439.500000, 433.000000)">
            <path d="M0,0 L0,40 L70,40 L70,0 L0,0 Z M0,0" id="Rectangle 1 copy 7" stroke="#979797" fill="#C5DAEC"></path>
            <text id="Win" fill="#000000" font-family="Source Sans Pro" font-size="18" font-weight="normal" sketch:alignment="middle" x="21" y="32.6260459">
                <tspan>Win</tspan>
            </text>
        </g>
        <g id="Group copy 2" transform="translate(979.000000, 433.000000)">
            <path d="M0,0 L0,40 L120,40 L120,0 L0,0 Z M0,0" id="Rectangle 1 copy 8" stroke="#979797" fill="#D8D8D8"></path>
            <text id="Win/Mac" fill="#000000" font-family="Source Sans Pro" font-size="18" font-weight="normal" sketch:alignment="middle" x="29.884" y="35.6260459">
                <tspan>Win/Mac</tspan>
            </text>
        </g>
        <g id="Group copy 3" transform="translate(979.500000, 35.000000)">
            <path d="M0,0 L0,40 L120,40 L120,0 L0,0 Z M0,0" id="Rectangle 1 copy 8" stroke="#979797" fill="#D8D8D8"></path>
            <text id="&quot;HTML&quot;, PDF" fill="#000000" font-family="Source Sans Pro" font-size="18" font-weight="normal" sketch:alignment="middle" x="15.353" y="35.6260459">
                <tspan>"HTML", PDF</tspan>
            </text>
        </g>
        <g id="Group copy" transform="translate(191.000000, 303.000000)">
            <path d="M0,0 L0,40 L70,40 L70,0 L0,0 Z M0,0" id="Rectangle 1 copy 4" stroke="#4A4A4A" fill="#85C2F8"></path>
            <text id="git" fill="#000000" font-family="Source Sans Pro" font-size="18" font-weight="bold" sketch:alignment="middle" x="24.5" y="32.6260459">
                <tspan>git</tspan>
            </text>
        </g>
        <g id="Group copy" transform="translate(364.000000, 303.000000)">
            <path d="M0,0 L0,40 L52.7155797,40 L70,40 L70,0 L0,0 Z M0,0" id="Rectangle 1 copy 4" stroke="#979797" fill="#C5DAEC"></path>
            <text id="bzr" fill="#000000" font-family="Source Sans Pro" font-size="18" font-weight="normal" sketch:alignment="middle" x="23.5" y="32.6260459">
                <tspan>bzr</tspan>
            </text>
        </g>
        <g id="Group copy" transform="translate(277.000000, 303.000000)">
            <path d="M0,0 L0,40 L70,40 L70,0 L0,0 Z M0,0" id="Rectangle 1 copy 5" stroke="#979797" fill="#C5DAEC"></path>
            <text id="hg" fill="#000000" font-family="Source Sans Pro" font-size="18" font-weight="normal" sketch:alignment="middle" x="26" y="32.6260459">
                <tspan>hg</tspan>
            </text>
        </g>
        <g id="Group copy" transform="translate(849.000000, 303.000000)">
            <path d="M0,0 L0,40 L70,40 L70,0 L0,0 Z M0,0" id="Rectangle 1 copy 6" stroke="#979797" fill="#D4D4D4"></path>
            <text id="svn" fill="#000000" font-family="Source Sans Pro" font-size="18" font-weight="normal" sketch:alignment="middle" x="22.5" y="32.6260459">
                <tspan>svn</tspan>
            </text>
        </g>
        <g id="Group copy 2" transform="translate(762.000000, 303.000000)">
            <path d="M0,0 L0,40 L70,40 L70,0 L0,0 Z M0,0" id="Rectangle 1 copy 6" stroke="#979797" fill="#D4D4D4"></path>
            <text id="git" fill="#000000" font-family="Source Sans Pro" font-size="18" font-weight="bold" sketch:alignment="middle" x="24.5" y="32.6260459">
                <tspan>git</tspan>
            </text>
        </g>
        <path d="M598.5,368 L598.5,408 L701.5,408 L701.5,368 L598.5,368 Z M598.5,368" id="Rectangle 1 copy 9" stroke="#979797" fill="#D8D8D8"></path>
        <text id="y copy" fill="#000000" font-family="Source Sans Pro" font-size="18" font-style="italic" font-weight="normal" sketch:alignment="middle" x="606.548" y="403.626046">
            <tspan>you choose!</tspan>
        </text>
        <path d="M598.5,433 L598.5,473 L701.5,473 L701.5,433 L598.5,433 Z M598.5,433" id="Rectangle 1 copy 9" stroke="#979797" fill="#D8D8D8"></path>
        <text id="y copy" fill="#000000" font-family="Source Sans Pro" font-size="18" font-style="italic" font-weight="normal" sketch:alignment="middle" x="606.548" y="468.626046">
            <tspan>you choose!</tspan>
        </text>
        <path d="M761,433 L761,473 L916,473 L916,433 L761,433 Z M761,433" id="Rectangle 1 copy 10" stroke="#979797" fill="#D8D8D8"></path>
        <text id="y copy 2" fill="#000000" font-family="Source Sans Pro" font-size="18" font-style="italic" font-weight="normal" sketch:alignment="middle" x="797.548" y="468.626046">
            <tspan>you choose!</tspan>
        </text>
        <path d="M598.5,303 L598.5,343 L701.5,343 L701.5,303 L598.5,303 Z M598.5,303" id="Rectangle 1 copy 9" stroke="#979797" fill="#D8D8D8"></path>
        <text id="y copy" fill="#000000" font-family="Source Sans Pro" font-size="18" font-style="italic" font-weight="normal" sketch:alignment="middle" x="606.548" y="338.626046">
            <tspan>you choose!</tspan>
        </text>
        <g id="Group" transform="translate(598.000000, 172.000000)">
            <path d="M0.5,0 L0.5,40 L103.5,40 L103.5,0 L0.5,0 Z M0.5,0" id="Rectangle 1 copy 10" stroke="#979797" fill="#D8D8D8"></path>
            <text id="y copy 2" fill="#000000" font-family="Source Sans Pro" font-size="18" font-style="italic" font-weight="normal" sketch:alignment="middle" x="8.548" y="35.6260459">
                <tspan>you choose!</tspan>
            </text>
        </g>
        <g id="Group copy" transform="translate(598.000000, 107.000000)">
            <path d="M0.5,0 L0.5,40 L103.5,40 L103.5,0 L0.5,0 Z M0.5,0" id="Rectangle 1 copy 10" stroke="#979797" fill="#D8D8D8"></path>
            <text id="y copy 2" fill="#000000" font-family="Source Sans Pro" font-size="18" font-style="italic" font-weight="normal" sketch:alignment="middle" x="8.548" y="35.6260459">
                <tspan>you choose!</tspan>
            </text>
        </g>
        <path d="M598.5,237 L598.5,277 L701.5,277 L701.5,237 L598.5,237 Z M598.5,237" id="Rectangle 1 copy 10" stroke="#979797" fill="#D8D8D8"></path>
        <text id="y copy 2" fill="#000000" font-family="Source Sans Pro" font-size="18" font-style="italic" font-weight="normal" sketch:alignment="middle" x="606.548" y="272.626046">
            <tspan>you choose!</tspan>
        </text>
        <path d="M465,40 L465,80 L701.5,80 L701.5,40 L465,40 Z M465,40" id="Rectangle 1 copy 10" stroke="#979797" fill="#D8D8D8"></path>
        <text id="y copy 2" fill="#000000" font-family="Source Sans Pro" font-size="18" font-style="italic" font-weight="normal" sketch:alignment="middle" x="490.23" y="71.6260459">
            <tspan>mediawiki, .odt, .docx, …</tspan>
        </text>
        <g id="Group copy" transform="translate(186.000000, 236.000000)">
            <path d="M6,0 L6,40 L128,40 L128,0 L6,0 Z M6,0" id="Rectangle 1 copy 4" stroke="#4A4A4A" fill="#85C1F8"></path>
            <text id="Markdown" fill="#000000" font-family="Source Sans Pro" font-size="18" font-weight="bold" sketch:alignment="middle" x="26.862" y="33.6260459">
                <tspan>Markdown</tspan>
            </text>
        </g>
        <g id="Group copy 2" transform="translate(386.000000, 236.000000)">
            <path d="M0,0 L0,40 L47,40 L47,0 L0,0 Z M0,0" id="Rectangle 1 copy 4" stroke="#4A4A4A" fill="#85C1F8"></path>
            <text id="-GFM" fill="#000000" font-family="Source Sans Pro" font-size="18" font-weight="normal" sketch:alignment="middle" x="4.159" y="33.6260459">
                <tspan>-GFM</tspan>
            </text>
        </g>
        <g id="Group copy 3" transform="translate(432.000000, 236.000000)">
            <path d="M0,0 L0,40 L50,40 L50,0 L0,0 Z M0,0" id="Rectangle 1 copy 4" stroke="#4A4A4A" fill="#85C1F8"></path>
            <text id="-MMD" fill="#000000" font-family="Source Sans Pro" font-size="18" font-weight="normal" sketch:alignment="middle" x="5.08" y="33.6260459">
                <tspan>-MMD</tspan>
            </text>
        </g>
        <g id="Group copy 4" transform="translate(313.000000, 236.000000)">
            <path d="M0,0 L0,40 L74,40 L74,0 L0,0 Z M0,0" id="Rectangle 1 copy 4" stroke="#4A4A4A" fill="#85C1F8"></path>
            <text id="-pandoc" fill="#000000" font-family="Source Sans Pro" font-size="18" font-weight="bold" sketch:alignment="middle" x="6.145" y="33.6260459">
                <tspan>-pandoc</tspan>
            </text>
        </g>
        <path d="M761,38 L761,278 L831,278 L831,38 L761,38 Z M761,38" id="Rectangle 1 copy 5" stroke="#9B9B9B" fill="#D4D4D4"></path>
        <text id="" fill="#000000" font-family="Source Sans Pro" font-size="18" font-weight="bold" sketch:alignment="middle" line-spacing="20">
            <tspan x="773" y="81.0002524"></tspan>
            <tspan x="773" y="101.000252"></tspan>
            <tspan x="773" y="121.000252"></tspan>
            <tspan x="768.842" y="138.468252">HTML</tspan>
        </text>
        <path d="M849,107 L849,276 L919,276 L919,107 L849,107 Z M849,107" id="Rectangle 1 copy 6" stroke="#9B9B9B" fill="#D4D4D4"></path>
        <text id="LaTeX" fill="#000000" font-family="Source Sans Pro" font-size="18" font-weight="bold" sketch:alignment="middle" line-spacing="20" x="856.342" y="203.841954">
            <tspan>LaTeX</tspan>
        </text>
        <g id="Group copy 2" transform="translate(499.000000, 236.000000)">
            <path d="M0,0 L0,40 L70,40 L70,0 L0,0 Z M0,0" id="Rectangle 1 copy 6" stroke="#9B9B9B" fill="#C5DAEC"></path>
            <text id="textile" fill="#000000" font-family="Source Sans Pro" font-size="18" font-weight="normal" sketch:alignment="middle" x="12" y="32.6260459">
                <tspan>textile</tspan>
            </text>
        </g>
        <g id="Group copy 2" transform="translate(453.000000, 171.000000)">
            <path d="M0,0 L0,40 L90,40 L90,0 L0,0 Z M0,0" id="Rectangle 1 copy 6" stroke="#9B9B9B" fill="#C5DAEC"></path>
            <text id="mustache" fill="#000000" font-family="Source Sans Pro" font-size="18" font-style="italic" font-weight="bold" sketch:alignment="middle" x="7.317" y="33.6260459">
                <tspan>mustache</tspan>
            </text>
        </g>
        <g id="Group copy" transform="translate(980.000000, 107.000000)">
            <path d="M0,0 L0,301 L120,301 L120,0 L0,0 Z M0,0" id="Rectangle 25" stroke="#979797" fill="#D8D8D8"></path>
            <text id="MS Word," fill="#000000" font-family="Source Sans Pro" font-size="18" font-weight="normal" sketch:alignment="middle">
                <tspan x="24.612" y="35.1260459">MS Word,</tspan>
                <tspan x="60" y="58.1260459"></tspan>
                <tspan x="12.246" y="81.1260459">Apple Pages,</tspan>
                <tspan x="60" y="104.126046"></tspan>
                <tspan x="25.026" y="127.126046">InDesign,</tspan>
                <tspan x="60" y="150.126046"></tspan>
                <tspan x="22.992" y="173.126046">QExpress,</tspan>
                <tspan x="60" y="196.126046"></tspan>
                <tspan x="51" y="219.126046" font-family="Lucida Grande">…</tspan>
            </text>
        </g>
        <path d="M786.32,540.424 C786.32,540.808002 786.443999,541.091999 786.692,541.276 C786.940001,541.460001 787.271998,541.552 787.688,541.552 C788.104002,541.552 788.455999,541.464001 788.744,541.288 C789.032001,541.111999 789.335998,540.864002 789.656,540.544 L789.656,538.456 C788.391994,538.632001 787.520002,538.887998 787.04,539.224 C786.559998,539.560002 786.32,539.959998 786.32,540.424 Z M762.104,536.272 C762.104,534.975994 762.303998,533.820005 762.704,532.804 C763.104002,531.787995 763.643997,530.928004 764.324,530.224 C765.004003,529.519996 765.795995,528.984002 766.7,528.616 C767.604005,528.247998 768.559995,528.064 769.568,528.064 C770.544005,528.064 771.427996,528.267998 772.22,528.676 C773.012004,529.084002 773.671997,529.559997 774.2,530.104 L772.256,532.288 C771.855998,531.919998 771.452002,531.632001 771.044,531.424 C770.635998,531.215999 770.160003,531.112 769.616,531.112 C769.071997,531.112 768.564002,531.227999 768.092,531.46 C767.619998,531.692001 767.208002,532.023998 766.856,532.456 C766.503998,532.888002 766.228001,533.415997 766.028,534.04 C765.827999,534.664003 765.728,535.367996 765.728,536.152 C765.728,537.768008 766.071997,539.019996 766.76,539.908 C767.448003,540.796004 768.367994,541.24 769.52,541.24 C770.160003,541.24 770.719998,541.112001 771.2,540.856 C771.680002,540.599999 772.111998,540.264002 772.496,539.848 L774.44,541.984 C773.783997,542.752004 773.036004,543.327998 772.196,543.712 C771.355996,544.096002 770.448005,544.288 769.472,544.288 C768.463995,544.288 767.512004,544.116002 766.616,543.772 C765.719996,543.427998 764.936003,542.920003 764.264,542.248 C763.591997,541.575997 763.064002,540.740005 762.68,539.74 C762.295998,538.739995 762.104,537.584007 762.104,536.272 Z M795.152,542.632 L796.736,540.424 C797.280003,540.840002 797.799998,541.151999 798.296,541.36 C798.792002,541.568001 799.295997,541.672 799.808,541.672 C800.336003,541.672 800.719999,541.584001 800.96,541.408 C801.200001,541.231999 801.32,540.984002 801.32,540.664 C801.32,540.471999 801.252001,540.300001 801.116,540.148 C800.979999,539.995999 800.796001,539.856001 800.564,539.728 C800.331999,539.599999 800.072001,539.484001 799.784,539.38 C799.495999,539.275999 799.200002,539.160001 798.896,539.032 C798.527998,538.887999 798.160002,538.720001 797.792,538.528 C797.423998,538.335999 797.088002,538.100001 796.784,537.82 C796.479998,537.539999 796.232001,537.212002 796.04,536.836 C795.847999,536.459998 795.752,536.024002 795.752,535.528 C795.752,534.983997 795.859999,534.480002 796.076,534.016 C796.292001,533.551998 796.599998,533.160002 797,532.84 C797.400002,532.519998 797.879997,532.268001 798.44,532.084 C799.000003,531.899999 799.623997,531.808 800.312,531.808 C801.224005,531.808 802.023997,531.963998 802.712,532.276 C803.400003,532.588002 803.999997,532.935998 804.512,533.32 L802.928,535.432 C802.495998,535.111998 802.072002,534.864001 801.656,534.688 C801.239998,534.511999 800.824002,534.424 800.408,534.424 C799.511996,534.424 799.064,534.735997 799.064,535.36 C799.064,535.552001 799.127999,535.715999 799.256,535.852 C799.384001,535.988001 799.555999,536.111999 799.772,536.224 C799.988001,536.336001 800.235999,536.443999 800.516,536.548 C800.796001,536.652001 801.087998,536.759999 801.392,536.872 C801.776002,537.016001 802.155998,537.179999 802.532,537.364 C802.908002,537.548001 803.251998,537.775999 803.564,538.048 C803.876002,538.320001 804.127999,538.651998 804.32,539.044 C804.512001,539.436002 804.608,539.903997 804.608,540.448 C804.608,540.992003 804.504001,541.495998 804.296,541.96 C804.087999,542.424002 803.776002,542.827998 803.36,543.172 C802.943998,543.516002 802.432003,543.787999 801.824,543.988 C801.215997,544.188001 800.512004,544.288 799.712,544.288 C798.927996,544.288 798.124004,544.136002 797.3,543.832 C796.475996,543.527998 795.760003,543.128002 795.152,542.632 Z M782.96,540.688 C782.96,539.439994 783.487995,538.464004 784.544,537.76 C785.600005,537.055996 787.303988,536.584001 789.656,536.344 C789.624,535.815997 789.464001,535.396002 789.176,535.084 C788.887999,534.771998 788.424003,534.616 787.784,534.616 C787.271997,534.616 786.760003,534.711999 786.248,534.904 C785.735997,535.096001 785.192003,535.359998 784.616,535.696 L783.368,533.368 C784.136004,532.903998 784.939996,532.528001 785.78,532.24 C786.620004,531.951999 787.511995,531.808 788.456,531.808 C789.992008,531.808 791.163996,532.243996 791.972,533.116 C792.780004,533.988004 793.184,535.343991 793.184,537.184 L793.184,544 L790.304,544 L790.04,542.776 L789.968,542.776 C789.455997,543.224002 788.916003,543.587999 788.348,543.868 C787.779997,544.148001 787.160003,544.288 786.488,544.288 C785.943997,544.288 785.456002,544.196001 785.024,544.012 C784.591998,543.827999 784.224002,543.572002 783.92,543.244 C783.615998,542.915998 783.380001,542.536002 783.212,542.104 C783.043999,541.671998 782.96,541.200003 782.96,540.688 Z M805.784,542.632 L807.368,540.424 C807.912003,540.840002 808.431998,541.151999 808.928,541.36 C809.424002,541.568001 809.927997,541.672 810.44,541.672 C810.968003,541.672 811.351999,541.584001 811.592,541.408 C811.832001,541.231999 811.952,540.984002 811.952,540.664 C811.952,540.471999 811.884001,540.300001 811.748,540.148 C811.611999,539.995999 811.428001,539.856001 811.196,539.728 C810.963999,539.599999 810.704001,539.484001 810.416,539.38 C810.127999,539.275999 809.832002,539.160001 809.528,539.032 C809.159998,538.887999 808.792002,538.720001 808.424,538.528 C808.055998,538.335999 807.720002,538.100001 807.416,537.82 C807.111998,537.539999 806.864001,537.212002 806.672,536.836 C806.479999,536.459998 806.384,536.024002 806.384,535.528 C806.384,534.983997 806.491999,534.480002 806.708,534.016 C806.924001,533.551998 807.231998,533.160002 807.632,532.84 C808.032002,532.519998 808.511997,532.268001 809.072,532.084 C809.632003,531.899999 810.255997,531.808 810.944,531.808 C811.856005,531.808 812.655997,531.963998 813.344,532.276 C814.032003,532.588002 814.631997,532.935998 815.144,533.32 L813.56,535.432 C813.127998,535.111998 812.704002,534.864001 812.288,534.688 C811.871998,534.511999 811.456002,534.424 811.04,534.424 C810.143996,534.424 809.696,534.735997 809.696,535.36 C809.696,535.552001 809.759999,535.715999 809.888,535.852 C810.016001,535.988001 810.187999,536.111999 810.404,536.224 C810.620001,536.336001 810.867999,536.443999 811.148,536.548 C811.428001,536.652001 811.719998,536.759999 812.024,536.872 C812.408002,537.016001 812.787998,537.179999 813.164,537.364 C813.540002,537.548001 813.883998,537.775999 814.196,538.048 C814.508002,538.320001 814.759999,538.651998 814.952,539.044 C815.144001,539.436002 815.24,539.903997 815.24,540.448 C815.24,540.992003 815.136001,541.495998 814.928,541.96 C814.719999,542.424002 814.408002,542.827998 813.992,543.172 C813.575998,543.516002 813.064003,543.787999 812.456,543.988 C811.847997,544.188001 811.144004,544.288 810.344,544.288 C809.559996,544.288 808.756004,544.136002 807.932,543.832 C807.107996,543.527998 806.392003,543.128002 805.784,542.632 Z M776.528,540.304 L776.528,527.176 L780.056,527.176 L780.056,540.448 C780.056,540.816002 780.123999,541.071999 780.26,541.216 C780.396001,541.360001 780.535999,541.432 780.68,541.432 L780.884,541.432 C780.94,541.432 781.016,541.416 781.112,541.384 L781.544,544 C781.351999,544.08 781.108001,544.148 780.812,544.204 C780.515999,544.26 780.168002,544.288 779.768,544.288 C779.159997,544.288 778.648002,544.192001 778.232,544 C777.815998,543.807999 777.484001,543.540002 777.236,543.196 C776.987999,542.851998 776.808001,542.436002 776.696,541.948 C776.583999,541.459998 776.528,540.912003 776.528,540.304 Z M819.224,530.344 C818.631997,530.344 818.144002,530.172002 817.76,529.828 C817.375998,529.483998 817.184,529.040003 817.184,528.496 C817.184,527.951997 817.375998,527.512002 817.76,527.176 C818.144002,526.839998 818.631997,526.672 819.224,526.672 C819.832003,526.672 820.323998,526.839998 820.7,527.176 C821.076002,527.512002 821.264,527.951997 821.264,528.496 C821.264,529.040003 821.076002,529.483998 820.7,529.828 C820.323998,530.172002 819.832003,530.344 819.224,530.344 Z M817.472,532.096 L821,532.096 L821,544 L817.472,544 Z M823.4,538.048 C823.4,537.055995 823.567998,536.172004 823.904,535.396 C824.240002,534.619996 824.691997,533.968003 825.26,533.44 C825.828003,532.911997 826.487996,532.508001 827.24,532.228 C827.992004,531.947999 828.775996,531.808 829.592,531.808 C830.328004,531.808 830.991997,531.931999 831.584,532.18 C832.176003,532.428001 832.671998,532.759998 833.072,533.176 L831.464,535.36 C830.903997,534.895998 830.352003,534.664 829.808,534.664 C828.943996,534.664 828.264002,534.967997 827.768,535.576 C827.271998,536.184003 827.024,537.007995 827.024,538.048 C827.024,539.088005 827.275997,539.911997 827.78,540.52 C828.284003,541.128003 828.919996,541.432 829.688,541.432 C830.120002,541.432 830.511998,541.344001 830.864,541.168 C831.216002,540.991999 831.535999,540.792001 831.824,540.568 L833.24,542.8 C832.663997,543.312003 832.024004,543.687999 831.32,543.928 C830.615996,544.168001 829.936003,544.288 829.28,544.288 C828.447996,544.288 827.676004,544.148001 826.964,543.868 C826.251996,543.587999 825.632003,543.184003 825.104,542.656 C824.575997,542.127997 824.160002,541.476004 823.856,540.7 C823.551998,539.923996 823.4,539.040005 823.4,538.048 Z M840.584,528.352 L850.448,528.352 L850.448,531.328 L844.112,531.328 L844.112,534.952 L849.536,534.952 L849.536,537.928 L844.112,537.928 L844.112,544 L840.584,544 Z M853.16,528.352 L856.688,528.352 L856.688,541.024 L862.88,541.024 L862.88,544 L853.16,544 Z M871.088,544.288 C870.031995,544.288 869.068004,544.100002 868.196,543.724 C867.323996,543.347998 866.576003,542.808004 865.952,542.104 C865.327997,541.399996 864.844002,540.544005 864.5,539.536 C864.155998,538.527995 863.984,537.384006 863.984,536.104 C863.984,534.823994 864.155998,533.684005 864.5,532.684 C864.844002,531.683995 865.327997,530.844003 865.952,530.164 C866.576003,529.483997 867.323996,528.964002 868.196,528.604 C869.068004,528.243998 870.031995,528.064 871.088,528.064 C872.144005,528.064 873.107996,528.243998 873.98,528.604 C874.852004,528.964002 875.599997,529.487997 876.224,530.176 C876.848003,530.864003 877.331998,531.707995 877.676,532.708 C878.020002,533.708005 878.192,534.839994 878.192,536.104 C878.192,537.384006 878.020002,538.527995 877.676,539.536 C877.331998,540.544005 876.848003,541.399996 876.224,542.104 C875.599997,542.808004 874.852004,543.347998 873.98,543.724 C873.107996,544.100002 872.144005,544.288 871.088,544.288 Z M871.088,541.24 C872.160005,541.24 873.007997,540.780005 873.632,539.86 C874.256003,538.939995 874.568,537.688008 874.568,536.104 C874.568,534.535992 874.256003,533.312004 873.632,532.432 C873.007997,531.551996 872.160005,531.112 871.088,531.112 C870.015995,531.112 869.168003,531.551996 868.544,532.432 C867.919997,533.312004 867.608,534.535992 867.608,536.104 C867.608,537.688008 867.919997,538.939995 868.544,539.86 C869.168003,540.780005 870.015995,541.24 871.088,541.24 Z M880.136,542.032 L882.152,539.608 C882.712003,540.088002 883.331997,540.479998 884.012,540.784 C884.692003,541.088002 885.359997,541.24 886.016,541.24 C886.752004,541.24 887.299998,541.104001 887.66,540.832 C888.020002,540.559999 888.2,540.192002 888.2,539.728 C888.2,539.487999 888.148001,539.280001 888.044,539.104 C887.939999,538.927999 887.788001,538.772001 887.588,538.636 C887.387999,538.499999 887.148001,538.372001 886.868,538.252 L885.944,537.856 L883.904,536.992 C883.503998,536.831999 883.116002,536.624001 882.74,536.368 C882.363998,536.111999 882.028001,535.812002 881.732,535.468 C881.435999,535.123998 881.200001,534.724002 881.024,534.268 C880.847999,533.811998 880.76,533.296003 880.76,532.72 C880.76,532.079997 880.895999,531.476003 881.168,530.908 C881.440001,530.339997 881.823998,529.844002 882.32,529.42 C882.816002,528.995998 883.403997,528.664001 884.084,528.424 C884.764003,528.183999 885.511996,528.064 886.328,528.064 C887.240005,528.064 888.139996,528.239998 889.028,528.592 C889.916004,528.944002 890.695997,529.455997 891.368,530.128 L889.568,532.36 C889.055997,531.959998 888.544003,531.652001 888.032,531.436 C887.519997,531.219999 886.952003,531.112 886.328,531.112 C885.719997,531.112 885.236002,531.235999 884.876,531.484 C884.515998,531.732001 884.336,532.079998 884.336,532.528 C884.336,532.768001 884.395999,532.971999 884.516,533.14 C884.636001,533.308001 884.803999,533.459999 885.02,533.596 C885.236001,533.732001 885.487999,533.859999 885.776,533.98 C886.064001,534.100001 886.375998,534.231999 886.712,534.376 L888.728,535.192 C889.688005,535.576002 890.443997,536.103997 890.996,536.776 C891.548003,537.448003 891.824,538.335994 891.824,539.44 C891.824,540.096003 891.692001,540.715997 891.428,541.3 C891.163999,541.884003 890.780003,542.395998 890.276,542.836 C889.771997,543.276002 889.152004,543.627999 888.416,543.892 C887.679996,544.156001 886.848005,544.288 885.92,544.288 C884.895995,544.288 883.876005,544.100002 882.86,543.724 C881.843995,543.347998 880.936004,542.784004 880.136,542.032 Z M893.048,542.032 L895.064,539.608 C895.624003,540.088002 896.243997,540.479998 896.924,540.784 C897.604003,541.088002 898.271997,541.24 898.928,541.24 C899.664004,541.24 900.211998,541.104001 900.572,540.832 C900.932002,540.559999 901.112,540.192002 901.112,539.728 C901.112,539.487999 901.060001,539.280001 900.956,539.104 C900.851999,538.927999 900.700001,538.772001 900.5,538.636 C900.299999,538.499999 900.060001,538.372001 899.78,538.252 L898.856,537.856 L896.816,536.992 C896.415998,536.831999 896.028002,536.624001 895.652,536.368 C895.275998,536.111999 894.940001,535.812002 894.644,535.468 C894.347999,535.123998 894.112001,534.724002 893.936,534.268 C893.759999,533.811998 893.672,533.296003 893.672,532.72 C893.672,532.079997 893.807999,531.476003 894.08,530.908 C894.352001,530.339997 894.735998,529.844002 895.232,529.42 C895.728002,528.995998 896.315997,528.664001 896.996,528.424 C897.676003,528.183999 898.423996,528.064 899.24,528.064 C900.152005,528.064 901.051996,528.239998 901.94,528.592 C902.828004,528.944002 903.607997,529.455997 904.28,530.128 L902.48,532.36 C901.967997,531.959998 901.456003,531.652001 900.944,531.436 C900.431997,531.219999 899.864003,531.112 899.24,531.112 C898.631997,531.112 898.148002,531.235999 897.788,531.484 C897.427998,531.732001 897.248,532.079998 897.248,532.528 C897.248,532.768001 897.307999,532.971999 897.428,533.14 C897.548001,533.308001 897.715999,533.459999 897.932,533.596 C898.148001,533.732001 898.399999,533.859999 898.688,533.98 C898.976001,534.100001 899.287998,534.231999 899.624,534.376 L901.64,535.192 C902.600005,535.576002 903.355997,536.103997 903.908,536.776 C904.460003,537.448003 904.736,538.335994 904.736,539.44 C904.736,540.096003 904.604001,540.715997 904.34,541.3 C904.075999,541.884003 903.692003,542.395998 903.188,542.836 C902.683997,543.276002 902.064004,543.627999 901.328,543.892 C900.591996,544.156001 899.760005,544.288 898.832,544.288 C897.807995,544.288 896.788005,544.100002 895.772,543.724 C894.755995,543.347998 893.848004,542.784004 893.048,542.032 Z M769.208,575.288 C768.151995,575.288 767.188004,575.100002 766.316,574.724 C765.443996,574.347998 764.696003,573.808004 764.072,573.104 C763.447997,572.399996 762.964002,571.544005 762.62,570.536 C762.275998,569.527995 762.104,568.384006 762.104,567.104 C762.104,565.823994 762.275998,564.684005 762.62,563.684 C762.964002,562.683995 763.447997,561.844003 764.072,561.164 C764.696003,560.483997 765.443996,559.964002 766.316,559.604 C767.188004,559.243998 768.151995,559.064 769.208,559.064 C770.264005,559.064 771.227996,559.243998 772.1,559.604 C772.972004,559.964002 773.719997,560.487997 774.344,561.176 C774.968003,561.864003 775.451998,562.707995 775.796,563.708 C776.140002,564.708005 776.312,565.839994 776.312,567.104 C776.312,568.384006 776.140002,569.527995 775.796,570.536 C775.451998,571.544005 774.968003,572.399996 774.344,573.104 C773.719997,573.808004 772.972004,574.347998 772.1,574.724 C771.227996,575.100002 770.264005,575.288 769.208,575.288 Z M769.208,572.24 C770.280005,572.24 771.127997,571.780005 771.752,570.86 C772.376003,569.939995 772.688,568.688008 772.688,567.104 C772.688,565.535992 772.376003,564.312004 771.752,563.432 C771.127997,562.551996 770.280005,562.112 769.208,562.112 C768.135995,562.112 767.288003,562.551996 766.664,563.432 C766.039997,564.312004 765.728,565.535992 765.728,567.104 C765.728,568.688008 766.039997,569.939995 766.664,570.86 C767.288003,571.780005 768.135995,572.24 769.208,572.24 Z M782.384,574.04 L782.504,575.936 L782.504,579.416 L778.976,579.416 L778.976,563.096 L781.856,563.096 L782.096,564.272 L782.192,564.272 C782.656002,563.855998 783.179997,563.508001 783.764,563.228 C784.348003,562.947999 784.951997,562.808 785.576,562.808 C786.296004,562.808 786.943997,562.951999 787.52,563.24 C788.096003,563.528001 788.583998,563.935997 788.984,564.464 C789.384002,564.992003 789.691999,565.627996 789.908,566.372 C790.124001,567.116004 790.232,567.943995 790.232,568.856 C790.232,569.880005 790.092001,570.787996 789.812,571.58 C789.531999,572.372004 789.156002,573.043997 788.684,573.596 C788.211998,574.148003 787.676003,574.567999 787.076,574.856 C786.475997,575.144001 785.856003,575.288 785.216,575.288 C784.703997,575.288 784.208002,575.180001 783.728,574.964 C783.247998,574.747999 782.800002,574.440002 782.384,574.04 Z M782.504,571.64 C782.824002,571.928001 783.143998,572.127999 783.464,572.24 C783.784002,572.352001 784.095998,572.408 784.4,572.408 C785.008003,572.408 785.527998,572.132003 785.96,571.58 C786.392002,571.027997 786.608,570.136006 786.608,568.904 C786.608,566.759989 785.920007,565.688 784.544,565.688 C783.855997,565.688 783.176003,566.047996 782.504,566.768 Z M793.208,565.856 L791.576,565.856 L791.576,563.24 L793.4,563.096 L793.808,559.928 L796.736,559.928 L796.736,563.096 L799.592,563.096 L799.592,565.856 L796.736,565.856 L796.736,570.632 C796.736,571.304003 796.875999,571.787999 797.156,572.084 C797.436001,572.380001 797.807998,572.528 798.272,572.528 C798.464001,572.528 798.659999,572.504 798.86,572.456 C799.060001,572.408 799.239999,572.352 799.4,572.288 L799.952,574.856 C799.631998,574.952 799.256002,575.048 798.824,575.144 C798.391998,575.24 797.888003,575.288 797.312,575.288 C796.575996,575.288 795.948003,575.176001 795.428,574.952 C794.907997,574.727999 794.484002,574.416002 794.156,574.016 C793.827998,573.615998 793.588001,573.132003 793.436,572.564 C793.283999,571.995997 793.208,571.368003 793.208,570.68 Z M803.672,561.344 C803.079997,561.344 802.592002,561.172002 802.208,560.828 C801.823998,560.483998 801.632,560.040003 801.632,559.496 C801.632,558.951997 801.823998,558.512002 802.208,558.176 C802.592002,557.839998 803.079997,557.672 803.672,557.672 C804.280003,557.672 804.771998,557.839998 805.148,558.176 C805.524002,558.512002 805.712,558.951997 805.712,559.496 C805.712,560.040003 805.524002,560.483998 805.148,560.828 C804.771998,561.172002 804.280003,561.344 803.672,561.344 Z M801.92,563.096 L805.448,563.096 L805.448,575 L801.92,575 Z M807.848,569.048 C807.848,568.055995 808.007998,567.172004 808.328,566.396 C808.648002,565.619996 809.075997,564.968003 809.612,564.44 C810.148003,563.911997 810.767996,563.508001 811.472,563.228 C812.176004,562.947999 812.903996,562.808 813.656,562.808 C814.408004,562.808 815.131997,562.947999 815.828,563.228 C816.524003,563.508001 817.139997,563.911997 817.676,564.44 C818.212003,564.968003 818.639998,565.619996 818.96,566.396 C819.280002,567.172004 819.44,568.055995 819.44,569.048 C819.44,570.040005 819.280002,570.923996 818.96,571.7 C818.639998,572.476004 818.212003,573.127997 817.676,573.656 C817.139997,574.184003 816.524003,574.587999 815.828,574.868 C815.131997,575.148001 814.408004,575.288 813.656,575.288 C812.903996,575.288 812.176004,575.148001 811.472,574.868 C810.767996,574.587999 810.148003,574.184003 809.612,573.656 C809.075997,573.127997 808.648002,572.476004 808.328,571.7 C808.007998,570.923996 807.848,570.040005 807.848,569.048 Z M811.472,569.048 C811.472,570.088005 811.651998,570.911997 812.012,571.52 C812.372002,572.128003 812.919996,572.432 813.656,572.432 C814.376004,572.432 814.919998,572.128003 815.288,571.52 C815.656002,570.911997 815.84,570.088005 815.84,569.048 C815.84,568.007995 815.656002,567.184003 815.288,566.576 C814.919998,565.967997 814.376004,565.664 813.656,565.664 C812.919996,565.664 812.372002,565.967997 812.012,566.576 C811.651998,567.184003 811.472,568.007995 811.472,569.048 Z M821.864,563.096 L824.744,563.096 L824.984,564.608 L825.08,564.608 C825.592003,564.127998 826.151997,563.708002 826.76,563.348 C827.368003,562.987998 828.079996,562.808 828.896,562.808 C830.192006,562.808 831.131997,563.231996 831.716,564.08 C832.300003,564.928004 832.592,566.103992 832.592,567.608 L832.592,575 L829.064,575 L829.064,568.064 C829.064,567.199996 828.948001,566.608002 828.716,566.288 C828.483999,565.967998 828.112003,565.808 827.6,565.808 C827.151998,565.808 826.768002,565.907999 826.448,566.108 C826.127998,566.308001 825.776002,566.591998 825.392,566.96 L825.392,575 L821.864,575 Z M834.536,573.632 L836.12,571.424 C836.664003,571.840002 837.183998,572.151999 837.68,572.36 C838.176002,572.568001 838.679997,572.672 839.192,572.672 C839.720003,572.672 840.103999,572.584001 840.344,572.408 C840.584001,572.231999 840.704,571.984002 840.704,571.664 C840.704,571.471999 840.636001,571.300001 840.5,571.148 C840.363999,570.995999 840.180001,570.856001 839.948,570.728 C839.715999,570.599999 839.456001,570.484001 839.168,570.38 C838.879999,570.275999 838.584002,570.160001 838.28,570.032 C837.911998,569.887999 837.544002,569.720001 837.176,569.528 C836.807998,569.335999 836.472002,569.100001 836.168,568.82 C835.863998,568.539999 835.616001,568.212002 835.424,567.836 C835.231999,567.459998 835.136,567.024002 835.136,566.528 C835.136,565.983997 835.243999,565.480002 835.46,565.016 C835.676001,564.551998 835.983998,564.160002 836.384,563.84 C836.784002,563.519998 837.263997,563.268001 837.824,563.084 C838.384003,562.899999 839.007997,562.808 839.696,562.808 C840.608005,562.808 841.407997,562.963998 842.096,563.276 C842.784003,563.588002 843.383997,563.935998 843.896,564.32 L842.312,566.432 C841.879998,566.111998 841.456002,565.864001 841.04,565.688 C840.623998,565.511999 840.208002,565.424 839.792,565.424 C838.895996,565.424 838.448,565.735997 838.448,566.36 C838.448,566.552001 838.511999,566.715999 838.64,566.852 C838.768001,566.988001 838.939999,567.111999 839.156,567.224 C839.372001,567.336001 839.619999,567.443999 839.9,567.548 C840.180001,567.652001 840.471998,567.759999 840.776,567.872 C841.160002,568.016001 841.539998,568.179999 841.916,568.364 C842.292002,568.548001 842.635998,568.775999 842.948,569.048 C843.260002,569.320001 843.511999,569.651998 843.704,570.044 C843.896001,570.436002 843.992,570.903997 843.992,571.448 C843.992,571.992003 843.888001,572.495998 843.68,572.96 C843.471999,573.424002 843.160002,573.827998 842.744,574.172 C842.327998,574.516002 841.816003,574.787999 841.208,574.988 C840.599997,575.188001 839.896004,575.288 839.096,575.288 C838.311996,575.288 837.508004,575.136002 836.684,574.832 C835.859996,574.527998 835.144003,574.128002 834.536,573.632 Z M834.536,573.632" id="Classic FLOSS" fill="#000000"></path>
        <path d="M981.848,529.352 L987.56,529.352 C988.408004,529.352 989.203996,529.435999 989.948,529.604 C990.692004,529.772001 991.339997,530.051998 991.892,530.444 C992.444003,530.836002 992.879998,531.355997 993.2,532.004 C993.520002,532.652003 993.68,533.447995 993.68,534.392 C993.68,535.304005 993.516002,536.095997 993.188,536.768 C992.859998,537.440003 992.416003,537.991998 991.856,538.424 C991.295997,538.856002 990.648004,539.175999 989.912,539.384 C989.175996,539.592001 988.392004,539.696 987.56,539.696 L985.376,539.696 L985.376,545 L981.848,545 Z M985.376,536.888 L987.344,536.888 C989.26401,536.888 990.224,536.056008 990.224,534.392 C990.224,533.575996 989.980002,533.000002 989.492,532.664 C989.003998,532.327998 988.288005,532.16 987.344,532.16 L985.376,532.16 Z M996.104,533.096 L998.984,533.096 L999.224,535.184 L999.32,535.184 C999.752002,534.367996 1000.272,533.768002 1000.88,533.384 C1001.488,532.999998 1002.096,532.808 1002.704,532.808 C1003.04,532.808 1003.316,532.828 1003.532,532.868 C1003.748,532.908 1003.944,532.968 1004.12,533.048 L1003.544,536.096 C1003.32,536.032 1003.112,535.984 1002.92,535.952 C1002.728,535.92 1002.504,535.904 1002.248,535.904 C1001.8,535.904 1001.332,536.063998 1000.844,536.384 C1000.356,536.704002 999.952002,537.271996 999.632,538.088 L999.632,545 L996.104,545 Z M1004.72,539.048 C1004.72,538.055995 1004.88,537.172004 1005.2,536.396 C1005.52,535.619996 1005.948,534.968003 1006.484,534.44 C1007.02,533.911997 1007.64,533.508001 1008.344,533.228 C1009.048,532.947999 1009.776,532.808 1010.528,532.808 C1011.28,532.808 1012.004,532.947999 1012.7,533.228 C1013.396,533.508001 1014.012,533.911997 1014.548,534.44 C1015.084,534.968003 1015.512,535.619996 1015.832,536.396 C1016.152,537.172004 1016.312,538.055995 1016.312,539.048 C1016.312,540.040005 1016.152,540.923996 1015.832,541.7 C1015.512,542.476004 1015.084,543.127997 1014.548,543.656 C1014.012,544.184003 1013.396,544.587999 1012.7,544.868 C1012.004,545.148001 1011.28,545.288 1010.528,545.288 C1009.776,545.288 1009.048,545.148001 1008.344,544.868 C1007.64,544.587999 1007.02,544.184003 1006.484,543.656 C1005.948,543.127997 1005.52,542.476004 1005.2,541.7 C1004.88,540.923996 1004.72,540.040005 1004.72,539.048 Z M1008.344,539.048 C1008.344,540.088005 1008.524,540.911997 1008.884,541.52 C1009.244,542.128003 1009.792,542.432 1010.528,542.432 C1011.248,542.432 1011.792,542.128003 1012.16,541.52 C1012.528,540.911997 1012.712,540.088005 1012.712,539.048 C1012.712,538.007995 1012.528,537.184003 1012.16,536.576 C1011.792,535.967997 1011.248,535.664 1010.528,535.664 C1009.792,535.664 1009.244,535.967997 1008.884,536.576 C1008.524,537.184003 1008.344,538.007995 1008.344,539.048 Z M1022.144,544.04 L1022.264,545.936 L1022.264,549.416 L1018.736,549.416 L1018.736,533.096 L1021.616,533.096 L1021.856,534.272 L1021.952,534.272 C1022.416,533.855998 1022.94,533.508001 1023.524,533.228 C1024.108,532.947999 1024.712,532.808 1025.336,532.808 C1026.056,532.808 1026.704,532.951999 1027.28,533.24 C1027.856,533.528001 1028.344,533.935997 1028.744,534.464 C1029.144,534.992003 1029.452,535.627996 1029.668,536.372 C1029.884,537.116004 1029.992,537.943995 1029.992,538.856 C1029.992,539.880005 1029.852,540.787996 1029.572,541.58 C1029.292,542.372004 1028.916,543.043997 1028.444,543.596 C1027.972,544.148003 1027.436,544.567999 1026.836,544.856 C1026.236,545.144001 1025.616,545.288 1024.976,545.288 C1024.464,545.288 1023.968,545.180001 1023.488,544.964 C1023.008,544.747999 1022.56,544.440002 1022.144,544.04 Z M1022.264,541.64 C1022.584,541.928001 1022.904,542.127999 1023.224,542.24 C1023.544,542.352001 1023.856,542.408 1024.16,542.408 C1024.768,542.408 1025.288,542.132003 1025.72,541.58 C1026.152,541.027997 1026.368,540.136006 1026.368,538.904 C1026.368,536.759989 1025.68001,535.688 1024.304,535.688 C1023.616,535.688 1022.936,536.047996 1022.264,536.768 Z M1032.488,545 L1032.488,533.096 L1035.368,533.096 L1035.608,535.184 L1035.704,535.184 C1036.136,534.367996 1036.656,533.768002 1037.264,533.384 C1037.872,532.999998 1038.48,532.808 1039.088,532.808 C1039.424,532.808 1039.7,532.828 1039.916,532.868 C1040.132,532.908 1040.328,532.968 1040.504,533.048 L1039.928,536.096 C1039.704,536.032 1039.496,535.984 1039.304,535.952 C1039.112,535.92 1038.888,535.904 1038.632,535.904 C1038.184,535.904 1037.716,536.063998 1037.228,536.384 C1036.74,536.704002 1036.336,537.271996 1036.016,538.088 L1036.016,545 Z M1043.792,531.344 C1043.2,531.344 1042.712,531.172002 1042.328,530.828 C1041.944,530.483998 1041.752,530.040003 1041.752,529.496 C1041.752,528.951997 1041.944,528.512002 1042.328,528.176 C1042.712,527.839998 1043.2,527.672 1043.792,527.672 C1044.4,527.672 1044.892,527.839998 1045.268,528.176 C1045.644,528.512002 1045.832,528.951997 1045.832,529.496 C1045.832,530.040003 1045.644,530.483998 1045.268,530.828 C1044.892,531.172002 1044.4,531.344 1043.792,531.344 Z M1042.04,533.096 L1045.568,533.096 L1045.568,545 L1042.04,545 Z M1047.968,539.048 C1047.968,538.087995 1048.128,537.220004 1048.448,536.444 C1048.768,535.667996 1049.188,535.012003 1049.708,534.476 C1050.228,533.939997 1050.824,533.528001 1051.496,533.24 C1052.168,532.951999 1052.864,532.808 1053.584,532.808 C1054.432,532.808 1055.172,532.951999 1055.804,533.24 C1056.436,533.528001 1056.964,533.927997 1057.388,534.44 C1057.812,534.952003 1058.128,535.555997 1058.336,536.252 C1058.544,536.948003 1058.648,537.703996 1058.648,538.52 C1058.648,538.840002 1058.632,539.131999 1058.6,539.396 C1058.568,539.660001 1058.536,539.863999 1058.504,540.008 L1051.376,540.008 C1051.536,540.920005 1051.892,541.579998 1052.444,541.988 C1052.996,542.396002 1053.672,542.6 1054.472,542.6 C1055.32,542.6 1056.176,542.336003 1057.04,541.808 L1058.216,543.944 C1057.608,544.360002 1056.932,544.687999 1056.188,544.928 C1055.444,545.168001 1054.712,545.288 1053.992,545.288 C1053.144,545.288 1052.352,545.148001 1051.616,544.868 C1050.88,544.587999 1050.24,544.180003 1049.696,543.644 C1049.152,543.107997 1048.728,542.456004 1048.424,541.688 C1048.12,540.919996 1047.968,540.040005 1047.968,539.048 Z M1051.352,537.824 L1055.648,537.824 C1055.648,537.135997 1055.496,536.576002 1055.192,536.144 C1054.888,535.711998 1054.376,535.496 1053.656,535.496 C1053.096,535.496 1052.604,535.683998 1052.18,536.06 C1051.756,536.436002 1051.48,537.023996 1051.352,537.824 Z M1061.144,540.68 L1061.144,535.856 L1059.512,535.856 L1059.512,533.24 L1061.336,533.096 L1061.744,529.928 L1064.672,529.928 L1064.672,533.096 L1067.528,533.096 L1067.528,535.856 L1064.672,535.856 L1064.672,540.632 C1064.672,541.304003 1064.812,541.787999 1065.092,542.084 C1065.372,542.380001 1065.744,542.528 1066.208,542.528 C1066.4,542.528 1066.596,542.504 1066.796,542.456 C1066.996,542.408 1067.176,542.352 1067.336,542.288 L1067.888,544.856 C1067.568,544.952 1067.192,545.048 1066.76,545.144 C1066.328,545.24 1065.824,545.288 1065.248,545.288 C1064.512,545.288 1063.884,545.176001 1063.364,544.952 C1062.844,544.727999 1062.42,544.416002 1062.092,544.016 C1061.764,543.615998 1061.524,543.132003 1061.372,542.564 C1061.22,541.995997 1061.144,541.368003 1061.144,540.68 Z M1069.136,541.688 C1069.136,540.439994 1069.66399,539.464004 1070.72,538.76 C1071.77601,538.055996 1073.47999,537.584001 1075.832,537.344 C1075.8,536.815997 1075.64,536.396002 1075.352,536.084 C1075.064,535.771998 1074.6,535.616 1073.96,535.616 C1073.448,535.616 1072.936,535.711999 1072.424,535.904 C1071.912,536.096001 1071.368,536.359998 1070.792,536.696 L1069.544,534.368 C1070.312,533.903998 1071.116,533.528001 1071.956,533.24 C1072.796,532.951999 1073.688,532.808 1074.632,532.808 C1076.16801,532.808 1077.34,533.243996 1078.148,534.116 C1078.956,534.988004 1079.36,536.343991 1079.36,538.184 L1079.36,545 L1076.48,545 L1076.216,543.776 L1076.144,543.776 C1075.632,544.224002 1075.092,544.587999 1074.524,544.868 C1073.956,545.148001 1073.336,545.288 1072.664,545.288 C1072.12,545.288 1071.632,545.196001 1071.2,545.012 C1070.768,544.827999 1070.4,544.572002 1070.096,544.244 C1069.792,543.915998 1069.556,543.536002 1069.388,543.104 C1069.22,542.671998 1069.136,542.200003 1069.136,541.688 Z M1072.496,541.424 C1072.496,541.808002 1072.62,542.091999 1072.868,542.276 C1073.116,542.460001 1073.448,542.552 1073.864,542.552 C1074.28,542.552 1074.632,542.464001 1074.92,542.288 C1075.208,542.111999 1075.512,541.864002 1075.832,541.544 L1075.832,539.456 C1074.56799,539.632001 1073.696,539.887998 1073.216,540.224 C1072.736,540.560002 1072.496,540.959998 1072.496,541.424 Z M1082.384,533.096 L1085.264,533.096 L1085.504,535.184 L1085.6,535.184 C1086.032,534.367996 1086.552,533.768002 1087.16,533.384 C1087.768,532.999998 1088.376,532.808 1088.984,532.808 C1089.32,532.808 1089.596,532.828 1089.812,532.868 C1090.028,532.908 1090.224,532.968 1090.4,533.048 L1089.824,536.096 C1089.6,536.032 1089.392,535.984 1089.2,535.952 C1089.008,535.92 1088.784,535.904 1088.528,535.904 C1088.08,535.904 1087.612,536.063998 1087.124,536.384 C1086.636,536.704002 1086.232,537.271996 1085.912,538.088 L1085.912,545 L1082.384,545 Z M1091.696,549.416 L1092.32,546.728 C1092.432,546.76 1092.56,546.792 1092.704,546.824 C1092.848,546.856 1092.984,546.872 1093.112,546.872 C1093.704,546.872 1094.16,546.728001 1094.48,546.44 C1094.8,546.151999 1095.04,545.776002 1095.2,545.312 L1095.368,544.688 L1090.784,533.096 L1094.336,533.096 L1096.04,538.208 C1096.216,538.752003 1096.376,539.303997 1096.52,539.864 C1096.664,540.424003 1096.816,540.999997 1096.976,541.592 L1097.072,541.592 C1097.2,541.031997 1097.332,540.468003 1097.468,539.9 C1097.604,539.331997 1097.744,538.768003 1097.888,538.208 L1099.328,533.096 L1102.712,533.096 L1098.584,545.12 C1098.296,545.872004 1097.996,546.531997 1097.684,547.1 C1097.372,547.668003 1097.012,548.139998 1096.604,548.516 C1096.196,548.892002 1095.732,549.175999 1095.212,549.368 C1094.692,549.560001 1094.08,549.656 1093.376,549.656 C1093.008,549.656 1092.696,549.636 1092.44,549.596 C1092.184,549.556 1091.936,549.496 1091.696,549.416 Z M988.208,576.288 C987.151995,576.288 986.188004,576.100002 985.316,575.724 C984.443996,575.347998 983.696003,574.808004 983.072,574.104 C982.447997,573.399996 981.964002,572.544005 981.62,571.536 C981.275998,570.527995 981.104,569.384006 981.104,568.104 C981.104,566.823994 981.275998,565.684005 981.62,564.684 C981.964002,563.683995 982.447997,562.844003 983.072,562.164 C983.696003,561.483997 984.443996,560.964002 985.316,560.604 C986.188004,560.243998 987.151995,560.064 988.208,560.064 C989.264005,560.064 990.227996,560.243998 991.1,560.604 C991.972004,560.964002 992.719997,561.487997 993.344,562.176 C993.968003,562.864003 994.451998,563.707995 994.796,564.708 C995.140002,565.708005 995.312,566.839994 995.312,568.104 C995.312,569.384006 995.140002,570.527995 994.796,571.536 C994.451998,572.544005 993.968003,573.399996 993.344,574.104 C992.719997,574.808004 991.972004,575.347998 991.1,575.724 C990.227996,576.100002 989.264005,576.288 988.208,576.288 Z M988.208,573.24 C989.280005,573.24 990.127997,572.780005 990.752,571.86 C991.376003,570.939995 991.688,569.688008 991.688,568.104 C991.688,566.535992 991.376003,565.312004 990.752,564.432 C990.127997,563.551996 989.280005,563.112 988.208,563.112 C987.135995,563.112 986.288003,563.551996 985.664,564.432 C985.039997,565.312004 984.728,566.535992 984.728,568.104 C984.728,569.688008 985.039997,570.939995 985.664,571.86 C986.288003,572.780005 987.135995,573.24 988.208,573.24 Z M1001.384,575.04 L1001.504,576.936 L1001.504,580.416 L997.976,580.416 L997.976,564.096 L1000.856,564.096 L1001.096,565.272 L1001.192,565.272 C1001.656,564.855998 1002.18,564.508001 1002.764,564.228 C1003.348,563.947999 1003.952,563.808 1004.576,563.808 C1005.296,563.808 1005.944,563.951999 1006.52,564.24 C1007.096,564.528001 1007.584,564.935997 1007.984,565.464 C1008.384,565.992003 1008.692,566.627996 1008.908,567.372 C1009.124,568.116004 1009.232,568.943995 1009.232,569.856 C1009.232,570.880005 1009.092,571.787996 1008.812,572.58 C1008.532,573.372004 1008.156,574.043997 1007.684,574.596 C1007.212,575.148003 1006.676,575.567999 1006.076,575.856 C1005.476,576.144001 1004.856,576.288 1004.216,576.288 C1003.704,576.288 1003.208,576.180001 1002.728,575.964 C1002.248,575.747999 1001.8,575.440002 1001.384,575.04 Z M1001.504,572.64 C1001.824,572.928001 1002.144,573.127999 1002.464,573.24 C1002.784,573.352001 1003.096,573.408 1003.4,573.408 C1004.008,573.408 1004.528,573.132003 1004.96,572.58 C1005.392,572.027997 1005.608,571.136006 1005.608,569.904 C1005.608,567.759989 1004.92001,566.688 1003.544,566.688 C1002.856,566.688 1002.176,567.047996 1001.504,567.768 Z M1012.208,566.856 L1010.576,566.856 L1010.576,564.24 L1012.4,564.096 L1012.808,560.928 L1015.736,560.928 L1015.736,564.096 L1018.592,564.096 L1018.592,566.856 L1015.736,566.856 L1015.736,571.632 C1015.736,572.304003 1015.876,572.787999 1016.156,573.084 C1016.436,573.380001 1016.808,573.528 1017.272,573.528 C1017.464,573.528 1017.66,573.504 1017.86,573.456 C1018.06,573.408 1018.24,573.352 1018.4,573.288 L1018.952,575.856 C1018.632,575.952 1018.256,576.048 1017.824,576.144 C1017.392,576.24 1016.888,576.288 1016.312,576.288 C1015.576,576.288 1014.948,576.176001 1014.428,575.952 C1013.908,575.727999 1013.484,575.416002 1013.156,575.016 C1012.828,574.615998 1012.588,574.132003 1012.436,573.564 C1012.284,572.995997 1012.208,572.368003 1012.208,571.68 Z M1022.672,562.344 C1022.08,562.344 1021.592,562.172002 1021.208,561.828 C1020.824,561.483998 1020.632,561.040003 1020.632,560.496 C1020.632,559.951997 1020.824,559.512002 1021.208,559.176 C1021.592,558.839998 1022.08,558.672 1022.672,558.672 C1023.28,558.672 1023.772,558.839998 1024.148,559.176 C1024.524,559.512002 1024.712,559.951997 1024.712,560.496 C1024.712,561.040003 1024.524,561.483998 1024.148,561.828 C1023.772,562.172002 1023.28,562.344 1022.672,562.344 Z M1020.92,564.096 L1024.448,564.096 L1024.448,576 L1020.92,576 Z M1026.848,570.048 C1026.848,569.055995 1027.008,568.172004 1027.328,567.396 C1027.648,566.619996 1028.076,565.968003 1028.612,565.44 C1029.148,564.911997 1029.768,564.508001 1030.472,564.228 C1031.176,563.947999 1031.904,563.808 1032.656,563.808 C1033.408,563.808 1034.132,563.947999 1034.828,564.228 C1035.524,564.508001 1036.14,564.911997 1036.676,565.44 C1037.212,565.968003 1037.64,566.619996 1037.96,567.396 C1038.28,568.172004 1038.44,569.055995 1038.44,570.048 C1038.44,571.040005 1038.28,571.923996 1037.96,572.7 C1037.64,573.476004 1037.212,574.127997 1036.676,574.656 C1036.14,575.184003 1035.524,575.587999 1034.828,575.868 C1034.132,576.148001 1033.408,576.288 1032.656,576.288 C1031.904,576.288 1031.176,576.148001 1030.472,575.868 C1029.768,575.587999 1029.148,575.184003 1028.612,574.656 C1028.076,574.127997 1027.648,573.476004 1027.328,572.7 C1027.008,571.923996 1026.848,571.040005 1026.848,570.048 Z M1030.472,570.048 C1030.472,571.088005 1030.652,571.911997 1031.012,572.52 C1031.372,573.128003 1031.92,573.432 1032.656,573.432 C1033.376,573.432 1033.92,573.128003 1034.288,572.52 C1034.656,571.911997 1034.84,571.088005 1034.84,570.048 C1034.84,569.007995 1034.656,568.184003 1034.288,567.576 C1033.92,566.967997 1033.376,566.664 1032.656,566.664 C1031.92,566.664 1031.372,566.967997 1031.012,567.576 C1030.652,568.184003 1030.472,569.007995 1030.472,570.048 Z M1040.864,564.096 L1043.744,564.096 L1043.984,565.608 L1044.08,565.608 C1044.592,565.127998 1045.152,564.708002 1045.76,564.348 C1046.368,563.987998 1047.08,563.808 1047.896,563.808 C1049.19201,563.808 1050.132,564.231996 1050.716,565.08 C1051.3,565.928004 1051.592,567.103992 1051.592,568.608 L1051.592,576 L1048.064,576 L1048.064,569.064 C1048.064,568.199996 1047.948,567.608002 1047.716,567.288 C1047.484,566.967998 1047.112,566.808 1046.6,566.808 C1046.152,566.808 1045.768,566.907999 1045.448,567.108 C1045.128,567.308001 1044.776,567.591998 1044.392,567.96 L1044.392,576 L1040.864,576 Z M1053.536,574.632 L1055.12,572.424 C1055.664,572.840002 1056.184,573.151999 1056.68,573.36 C1057.176,573.568001 1057.68,573.672 1058.192,573.672 C1058.72,573.672 1059.104,573.584001 1059.344,573.408 C1059.584,573.231999 1059.704,572.984002 1059.704,572.664 C1059.704,572.471999 1059.636,572.300001 1059.5,572.148 C1059.364,571.995999 1059.18,571.856001 1058.948,571.728 C1058.716,571.599999 1058.456,571.484001 1058.168,571.38 C1057.88,571.275999 1057.584,571.160001 1057.28,571.032 C1056.912,570.887999 1056.544,570.720001 1056.176,570.528 C1055.808,570.335999 1055.472,570.100001 1055.168,569.82 C1054.864,569.539999 1054.616,569.212002 1054.424,568.836 C1054.232,568.459998 1054.136,568.024002 1054.136,567.528 C1054.136,566.983997 1054.244,566.480002 1054.46,566.016 C1054.676,565.551998 1054.984,565.160002 1055.384,564.84 C1055.784,564.519998 1056.264,564.268001 1056.824,564.084 C1057.384,563.899999 1058.008,563.808 1058.696,563.808 C1059.608,563.808 1060.408,563.963998 1061.096,564.276 C1061.784,564.588002 1062.384,564.935998 1062.896,565.32 L1061.312,567.432 C1060.88,567.111998 1060.456,566.864001 1060.04,566.688 C1059.624,566.511999 1059.208,566.424 1058.792,566.424 C1057.896,566.424 1057.448,566.735997 1057.448,567.36 C1057.448,567.552001 1057.512,567.715999 1057.64,567.852 C1057.768,567.988001 1057.94,568.111999 1058.156,568.224 C1058.372,568.336001 1058.62,568.443999 1058.9,568.548 C1059.18,568.652001 1059.472,568.759999 1059.776,568.872 C1060.16,569.016001 1060.54,569.179999 1060.916,569.364 C1061.292,569.548001 1061.636,569.775999 1061.948,570.048 C1062.26,570.320001 1062.512,570.651998 1062.704,571.044 C1062.896,571.436002 1062.992,571.903997 1062.992,572.448 C1062.992,572.992003 1062.888,573.495998 1062.68,573.96 C1062.472,574.424002 1062.16,574.827998 1061.744,575.172 C1061.328,575.516002 1060.816,575.787999 1060.208,575.988 C1059.6,576.188001 1058.896,576.288 1058.096,576.288 C1057.312,576.288 1056.508,576.136002 1055.684,575.832 C1054.86,575.527998 1054.144,575.128002 1053.536,574.632 Z M1053.536,574.632" id="Proprietary" fill="#000000"></path>
        <path d="M180.888527,529.352 L186.600527,529.352 C187.448532,529.352 188.244524,529.435999 188.988527,529.604 C189.732531,529.772001 190.380525,530.051998 190.932527,530.444 C191.48453,530.836002 191.920526,531.355997 192.240527,532.004 C192.560529,532.652003 192.720527,533.447995 192.720527,534.392 C192.720527,535.304005 192.556529,536.095997 192.228527,536.768 C191.900526,537.440003 191.45653,537.991998 190.896527,538.424 C190.336525,538.856002 189.688531,539.175999 188.952527,539.384 C188.216524,539.592001 187.432532,539.696 186.600527,539.696 L184.416527,539.696 L184.416527,545 L180.888527,545 Z M184.416527,536.888 L186.384527,536.888 C188.304537,536.888 189.264527,536.056008 189.264527,534.392 C189.264527,533.575996 189.02053,533.000002 188.532527,532.664 C188.044525,532.327998 187.328532,532.16 186.384527,532.16 L184.416527,532.16 Z M193.896527,541.688 C193.896527,540.439994 194.424522,539.464004 195.480527,538.76 C196.536533,538.055996 198.240516,537.584001 200.592527,537.344 C200.560527,536.815997 200.400529,536.396002 200.112527,536.084 C199.824526,535.771998 199.360531,535.616 198.720527,535.616 C198.208525,535.616 197.69653,535.711999 197.184527,535.904 C196.672525,536.096001 196.12853,536.359998 195.552527,536.696 L194.304527,534.368 C195.072531,533.903998 195.876523,533.528001 196.716527,533.24 C197.556532,532.951999 198.448523,532.808 199.392527,532.808 C200.928535,532.808 202.100523,533.243996 202.908527,534.116 C203.716531,534.988004 204.120527,536.343991 204.120527,538.184 L204.120527,545 L201.240527,545 L200.976527,543.776 L200.904527,543.776 C200.392525,544.224002 199.85253,544.587999 199.284527,544.868 C198.716525,545.148001 198.096531,545.288 197.424527,545.288 C196.880525,545.288 196.39253,545.196001 195.960527,545.012 C195.528525,544.827999 195.160529,544.572002 194.856527,544.244 C194.552526,543.915998 194.316528,543.536002 194.148527,543.104 C193.980527,542.671998 193.896527,542.200003 193.896527,541.688 Z M197.256527,541.424 C197.256527,541.808002 197.380526,542.091999 197.628527,542.276 C197.876529,542.460001 198.208525,542.552 198.624527,542.552 C199.040529,542.552 199.392526,542.464001 199.680527,542.288 C199.968529,542.111999 200.272526,541.864002 200.592527,541.544 L200.592527,539.456 C199.328521,539.632001 198.45653,539.887998 197.976527,540.224 C197.496525,540.560002 197.256527,540.959998 197.256527,541.424 Z M210.552527,544.04 L210.672527,545.936 L210.672527,549.416 L207.144527,549.416 L207.144527,533.096 L210.024527,533.096 L210.264527,534.272 L210.360527,534.272 C210.82453,533.855998 211.348524,533.508001 211.932527,533.228 C212.51653,532.947999 213.120524,532.808 213.744527,532.808 C214.464531,532.808 215.112524,532.951999 215.688527,533.24 C216.26453,533.528001 216.752525,533.935997 217.152527,534.464 C217.552529,534.992003 217.860526,535.627996 218.076527,536.372 C218.292528,537.116004 218.400527,537.943995 218.400527,538.856 C218.400527,539.880005 218.260529,540.787996 217.980527,541.58 C217.700526,542.372004 217.32453,543.043997 216.852527,543.596 C216.380525,544.148003 215.84453,544.567999 215.244527,544.856 C214.644524,545.144001 214.024531,545.288 213.384527,545.288 C212.872525,545.288 212.37653,545.180001 211.896527,544.964 C211.416525,544.747999 210.968529,544.440002 210.552527,544.04 Z M210.672527,541.64 C210.992529,541.928001 211.312526,542.127999 211.632527,542.24 C211.952529,542.352001 212.264526,542.408 212.568527,542.408 C213.17653,542.408 213.696525,542.132003 214.128527,541.58 C214.56053,541.027997 214.776527,540.136006 214.776527,538.904 C214.776527,536.759989 214.088534,535.688 212.712527,535.688 C212.024524,535.688 211.344531,536.047996 210.672527,536.768 Z M220.200527,539.048 C220.200527,538.087995 220.360526,537.220004 220.680527,536.444 C221.000529,535.667996 221.420525,535.012003 221.940527,534.476 C222.46053,533.939997 223.056524,533.528001 223.728527,533.24 C224.400531,532.951999 225.096524,532.808 225.816527,532.808 C226.664532,532.808 227.404524,532.951999 228.036527,533.24 C228.668531,533.528001 229.196525,533.927997 229.620527,534.44 C230.044529,534.952003 230.360526,535.555997 230.568527,536.252 C230.776528,536.948003 230.880527,537.703996 230.880527,538.52 C230.880527,538.840002 230.864528,539.131999 230.832527,539.396 C230.800527,539.660001 230.768528,539.863999 230.736527,540.008 L223.608527,540.008 C223.768528,540.920005 224.124525,541.579998 224.676527,541.988 C225.22853,542.396002 225.904523,542.6 226.704527,542.6 C227.552532,542.6 228.408523,542.336003 229.272527,541.808 L230.448527,543.944 C229.840524,544.360002 229.164531,544.687999 228.420527,544.928 C227.676524,545.168001 226.944531,545.288 226.224527,545.288 C225.376523,545.288 224.584531,545.148001 223.848527,544.868 C223.112524,544.587999 222.47253,544.180003 221.928527,543.644 C221.384525,543.107997 220.960529,542.456004 220.656527,541.688 C220.352526,540.919996 220.200527,540.040005 220.200527,539.048 Z M223.584527,537.824 L227.880527,537.824 C227.880527,537.135997 227.728529,536.576002 227.424527,536.144 C227.120526,535.711998 226.608531,535.496 225.888527,535.496 C225.328525,535.496 224.836529,535.683998 224.412527,536.06 C223.988525,536.436002 223.712528,537.023996 223.584527,537.824 Z M233.328527,533.096 L236.208527,533.096 L236.448527,535.184 L236.544527,535.184 C236.97653,534.367996 237.496524,533.768002 238.104527,533.384 C238.71253,532.999998 239.320524,532.808 239.928527,532.808 C240.264529,532.808 240.540526,532.828 240.756527,532.868 C240.972528,532.908 241.168526,532.968 241.344527,533.048 L240.768527,536.096 C240.544526,536.032 240.336528,535.984 240.144527,535.952 C239.952526,535.92 239.728529,535.904 239.472527,535.904 C239.024525,535.904 238.55653,536.063998 238.068527,536.384 C237.580525,536.704002 237.176529,537.271996 236.856527,538.088 L236.856527,545 L233.328527,545 Z M242.880527,533.096 L245.760527,533.096 L246.000527,534.632 L246.096527,534.632 C246.59253,534.135998 247.120525,533.708002 247.680527,533.348 C248.24053,532.987998 248.912523,532.808 249.696527,532.808 C250.544532,532.808 251.228525,532.979998 251.748527,533.324 C252.26853,533.668002 252.680526,534.159997 252.984527,534.8 C253.51253,534.255997 254.068524,533.788002 254.652527,533.396 C255.23653,533.003998 255.928523,532.808 256.728527,532.808 C258.008534,532.808 258.948524,533.235996 259.548527,534.092 C260.14853,534.948004 260.448527,536.119993 260.448527,537.608 L260.448527,545 L256.920527,545 L256.920527,538.064 C256.920527,537.199996 256.804529,536.608002 256.572527,536.288 C256.340526,535.967998 255.96853,535.808 255.456527,535.808 C254.864524,535.808 254.184531,536.191996 253.416527,536.96 L253.416527,545 L249.888527,545 L249.888527,538.064 C249.888527,537.199996 249.772529,536.608002 249.540527,536.288 C249.308526,535.967998 248.93653,535.808 248.424527,535.808 C247.816524,535.808 247.144531,536.191996 246.408527,536.96 L246.408527,545 L242.880527,545 Z M265.200527,531.344 C264.608524,531.344 264.120529,531.172002 263.736527,530.828 C263.352525,530.483998 263.160527,530.040003 263.160527,529.496 C263.160527,528.951997 263.352525,528.512002 263.736527,528.176 C264.120529,527.839998 264.608524,527.672 265.200527,527.672 C265.80853,527.672 266.300525,527.839998 266.676527,528.176 C267.052529,528.512002 267.240527,528.951997 267.240527,529.496 C267.240527,530.040003 267.052529,530.483998 266.676527,530.828 C266.300525,531.172002 265.80853,531.344 265.200527,531.344 Z M263.448527,533.096 L266.976527,533.096 L266.976527,545 L263.448527,545 Z M270.072527,528.176 L273.600527,528.176 L273.600527,541.448 C273.600527,541.816002 273.668527,542.071999 273.804527,542.216 C273.940528,542.360001 274.080527,542.432 274.224527,542.432 L274.428527,542.432 C274.484528,542.432 274.560527,542.416 274.656527,542.384 L275.088527,545 C274.896526,545.08 274.652529,545.148 274.356527,545.204 C274.060526,545.26 273.712529,545.288 273.312527,545.288 C272.704524,545.288 272.192529,545.192001 271.776527,545 C271.360525,544.807999 271.028529,544.540002 270.780527,544.196 C270.532526,543.851998 270.352528,543.436002 270.240527,542.948 C270.128527,542.459998 270.072527,541.912003 270.072527,541.304 Z M276.936527,528.176 L280.464527,528.176 L280.464527,541.448 C280.464527,541.816002 280.532527,542.071999 280.668527,542.216 C280.804528,542.360001 280.944527,542.432 281.088527,542.432 L281.292527,542.432 C281.348528,542.432 281.424527,542.416 281.520527,542.384 L281.952527,545 C281.760526,545.08 281.516529,545.148 281.220527,545.204 C280.924526,545.26 280.576529,545.288 280.176527,545.288 C279.568524,545.288 279.056529,545.192001 278.640527,545 C278.224525,544.807999 277.892529,544.540002 277.644527,544.196 C277.396526,543.851998 277.216528,543.436002 277.104527,542.948 C276.992527,542.459998 276.936527,541.912003 276.936527,541.304 Z M181.080527,566.856 L179.448527,566.856 L179.448527,564.24 L181.272527,564.096 L181.680527,560.928 L184.608527,560.928 L184.608527,564.096 L187.464527,564.096 L187.464527,566.856 L184.608527,566.856 L184.608527,571.632 C184.608527,572.304003 184.748526,572.787999 185.028527,573.084 C185.308529,573.380001 185.680525,573.528 186.144527,573.528 C186.336528,573.528 186.532526,573.504 186.732527,573.456 C186.932528,573.408 187.112527,573.352 187.272527,573.288 L187.824527,575.856 C187.504526,575.952 187.12853,576.048 186.696527,576.144 C186.264525,576.24 185.76053,576.288 185.184527,576.288 C184.448524,576.288 183.82053,576.176001 183.300527,575.952 C182.780525,575.727999 182.356529,575.416002 182.028527,575.016 C181.700526,574.615998 181.460528,574.132003 181.308527,573.564 C181.156527,572.995997 181.080527,572.368003 181.080527,571.68 Z M188.856527,570.048 C188.856527,569.055995 189.016526,568.172004 189.336527,567.396 C189.656529,566.619996 190.084525,565.968003 190.620527,565.44 C191.15653,564.911997 191.776524,564.508001 192.480527,564.228 C193.184531,563.947999 193.912524,563.808 194.664527,563.808 C195.416531,563.808 196.140524,563.947999 196.836527,564.228 C197.532531,564.508001 198.148525,564.911997 198.684527,565.44 C199.22053,565.968003 199.648526,566.619996 199.968527,567.396 C200.288529,568.172004 200.448527,569.055995 200.448527,570.048 C200.448527,571.040005 200.288529,571.923996 199.968527,572.7 C199.648526,573.476004 199.22053,574.127997 198.684527,574.656 C198.148525,575.184003 197.532531,575.587999 196.836527,575.868 C196.140524,576.148001 195.416531,576.288 194.664527,576.288 C193.912524,576.288 193.184531,576.148001 192.480527,575.868 C191.776524,575.587999 191.15653,575.184003 190.620527,574.656 C190.084525,574.127997 189.656529,573.476004 189.336527,572.7 C189.016526,571.923996 188.856527,571.040005 188.856527,570.048 Z M192.480527,570.048 C192.480527,571.088005 192.660526,571.911997 193.020527,572.52 C193.380529,573.128003 193.928524,573.432 194.664527,573.432 C195.384531,573.432 195.928526,573.128003 196.296527,572.52 C196.664529,571.911997 196.848527,571.088005 196.848527,570.048 C196.848527,569.007995 196.664529,568.184003 196.296527,567.576 C195.928526,566.967997 195.384531,566.664 194.664527,566.664 C193.928524,566.664 193.380529,566.967997 193.020527,567.576 C192.660526,568.184003 192.480527,569.007995 192.480527,570.048 Z M202.176527,570.048 C202.176527,569.055995 202.336526,568.172004 202.656527,567.396 C202.976529,566.619996 203.404525,565.968003 203.940527,565.44 C204.47653,564.911997 205.096524,564.508001 205.800527,564.228 C206.504531,563.947999 207.232524,563.808 207.984527,563.808 C208.736531,563.808 209.460524,563.947999 210.156527,564.228 C210.852531,564.508001 211.468525,564.911997 212.004527,565.44 C212.54053,565.968003 212.968526,566.619996 213.288527,567.396 C213.608529,568.172004 213.768527,569.055995 213.768527,570.048 C213.768527,571.040005 213.608529,571.923996 213.288527,572.7 C212.968526,573.476004 212.54053,574.127997 212.004527,574.656 C211.468525,575.184003 210.852531,575.587999 210.156527,575.868 C209.460524,576.148001 208.736531,576.288 207.984527,576.288 C207.232524,576.288 206.504531,576.148001 205.800527,575.868 C205.096524,575.587999 204.47653,575.184003 203.940527,574.656 C203.404525,574.127997 202.976529,573.476004 202.656527,572.7 C202.336526,571.923996 202.176527,571.040005 202.176527,570.048 Z M205.800527,570.048 C205.800527,571.088005 205.980526,571.911997 206.340527,572.52 C206.700529,573.128003 207.248524,573.432 207.984527,573.432 C208.704531,573.432 209.248526,573.128003 209.616527,572.52 C209.984529,571.911997 210.168527,571.088005 210.168527,570.048 C210.168527,569.007995 209.984529,568.184003 209.616527,567.576 C209.248526,566.967997 208.704531,566.664 207.984527,566.664 C207.248524,566.664 206.700529,566.967997 206.340527,567.576 C205.980526,568.184003 205.800527,569.007995 205.800527,570.048 Z M216.192527,559.176 L219.720527,559.176 L219.720527,572.448 C219.720527,572.816002 219.788527,573.071999 219.924527,573.216 C220.060528,573.360001 220.200527,573.432 220.344527,573.432 L220.548527,573.432 C220.604528,573.432 220.680527,573.416 220.776527,573.384 L221.208527,576 C221.016526,576.08 220.772529,576.148 220.476527,576.204 C220.180526,576.26 219.832529,576.288 219.432527,576.288 C218.824524,576.288 218.312529,576.192001 217.896527,576 C217.480525,575.807999 217.148529,575.540002 216.900527,575.196 C216.652526,574.851998 216.472528,574.436002 216.360527,573.948 C216.248527,573.459998 216.192527,572.912003 216.192527,572.304 Z M227.352527,570.048 C227.352527,569.055995 227.520526,568.172004 227.856527,567.396 C228.192529,566.619996 228.644525,565.968003 229.212527,565.44 C229.78053,564.911997 230.440524,564.508001 231.192527,564.228 C231.944531,563.947999 232.728523,563.808 233.544527,563.808 C234.280531,563.808 234.944524,563.931999 235.536527,564.18 C236.12853,564.428001 236.624525,564.759998 237.024527,565.176 L235.416527,567.36 C234.856525,566.895998 234.30453,566.664 233.760527,566.664 C232.896523,566.664 232.21653,566.967997 231.720527,567.576 C231.224525,568.184003 230.976527,569.007995 230.976527,570.048 C230.976527,571.088005 231.228525,571.911997 231.732527,572.52 C232.23653,573.128003 232.872524,573.432 233.640527,573.432 C234.07253,573.432 234.464526,573.344001 234.816527,573.168 C235.168529,572.991999 235.488526,572.792001 235.776527,572.568 L237.192527,574.8 C236.616524,575.312003 235.976531,575.687999 235.272527,575.928 C234.568524,576.168001 233.888531,576.288 233.232527,576.288 C232.400523,576.288 231.628531,576.148001 230.916527,575.868 C230.204524,575.587999 229.58453,575.184003 229.056527,574.656 C228.528525,574.127997 228.112529,573.476004 227.808527,572.7 C227.504526,571.923996 227.352527,571.040005 227.352527,570.048 Z M239.256527,559.176 L242.784527,559.176 L242.784527,563.304 L242.616527,565.44 C243.06453,565.039998 243.584524,564.668002 244.176527,564.324 C244.76853,563.979998 245.472523,563.808 246.288527,563.808 C247.584534,563.808 248.524524,564.231996 249.108527,565.08 C249.69253,565.928004 249.984527,567.103992 249.984527,568.608 L249.984527,576 L246.456527,576 L246.456527,569.064 C246.456527,568.199996 246.340529,567.608002 246.108527,567.288 C245.876526,566.967998 245.50453,566.808 244.992527,566.808 C244.544525,566.808 244.160529,566.907999 243.840527,567.108 C243.520526,567.308001 243.168529,567.591998 242.784527,567.96 L242.784527,576 L239.256527,576 Z M252.528527,572.688 C252.528527,571.439994 253.056522,570.464004 254.112527,569.76 C255.168533,569.055996 256.872516,568.584001 259.224527,568.344 C259.192527,567.815997 259.032529,567.396002 258.744527,567.084 C258.456526,566.771998 257.992531,566.616 257.352527,566.616 C256.840525,566.616 256.32853,566.711999 255.816527,566.904 C255.304525,567.096001 254.76053,567.359998 254.184527,567.696 L252.936527,565.368 C253.704531,564.903998 254.508523,564.528001 255.348527,564.24 C256.188532,563.951999 257.080523,563.808 258.024527,563.808 C259.560535,563.808 260.732523,564.243996 261.540527,565.116 C262.348531,565.988004 262.752527,567.343991 262.752527,569.184 L262.752527,576 L259.872527,576 L259.608527,574.776 L259.536527,574.776 C259.024525,575.224002 258.48453,575.587999 257.916527,575.868 C257.348525,576.148001 256.728531,576.288 256.056527,576.288 C255.512525,576.288 255.02453,576.196001 254.592527,576.012 C254.160525,575.827999 253.792529,575.572002 253.488527,575.244 C253.184526,574.915998 252.948528,574.536002 252.780527,574.104 C252.612527,573.671998 252.528527,573.200003 252.528527,572.688 Z M255.888527,572.424 C255.888527,572.808002 256.012526,573.091999 256.260527,573.276 C256.508529,573.460001 256.840525,573.552 257.256527,573.552 C257.672529,573.552 258.024526,573.464001 258.312527,573.288 C258.600529,573.111999 258.904526,572.864002 259.224527,572.544 L259.224527,570.456 C257.960521,570.632001 257.08853,570.887998 256.608527,571.224 C256.128525,571.560002 255.888527,571.959998 255.888527,572.424 Z M267.528527,562.344 C266.936524,562.344 266.448529,562.172002 266.064527,561.828 C265.680525,561.483998 265.488527,561.040003 265.488527,560.496 C265.488527,559.951997 265.680525,559.512002 266.064527,559.176 C266.448529,558.839998 266.936524,558.672 267.528527,558.672 C268.13653,558.672 268.628525,558.839998 269.004527,559.176 C269.380529,559.512002 269.568527,559.951997 269.568527,560.496 C269.568527,561.040003 269.380529,561.483998 269.004527,561.828 C268.628525,562.172002 268.13653,562.344 267.528527,562.344 Z M265.776527,564.096 L269.304527,564.096 L269.304527,576 L265.776527,576 Z M272.400527,564.096 L275.280527,564.096 L275.520527,565.608 L275.616527,565.608 C276.12853,565.127998 276.688524,564.708002 277.296527,564.348 C277.90453,563.987998 278.616523,563.808 279.432527,563.808 C280.728534,563.808 281.668524,564.231996 282.252527,565.08 C282.83653,565.928004 283.128527,567.103992 283.128527,568.608 L283.128527,576 L279.600527,576 L279.600527,569.064 C279.600527,568.199996 279.484529,567.608002 279.252527,567.288 C279.020526,566.967998 278.64853,566.808 278.136527,566.808 C277.688525,566.808 277.304529,566.907999 276.984527,567.108 C276.664526,567.308001 276.312529,567.591998 275.928527,567.96 L275.928527,576 L272.400527,576 Z M272.400527,564.096" id="Papermill " fill="#000000"></path>
    </g>
</svg>